<svg xmlns="http://www.w3.org/2000/svg">
<defs>
<font id="DigitalTS-MediumRegular" horiz-adv-x="1241" >
<font-face units-per-em="2048" ascent="1638" descent="-410" />
<missing-glyph horiz-adv-x="407" />
<glyph unicode=" "  horiz-adv-x="407" />
<glyph unicode="&#x09;" horiz-adv-x="407" />
<glyph unicode="&#xa0;" horiz-adv-x="407" />
<glyph unicode="!" horiz-adv-x="518" d="M158 120.5q0 57.5 36.5 96.5t96.5 39q61 0 98 -39t37 -96.5t-36 -95t-99 -37.5q-59 0 -96 37.5t-37 95zM190 401v965h203v-965h-203z" />
<glyph unicode="&#x22;" horiz-adv-x="768" d="M111 1479h217l-23 -547h-174zM440 1479h219l-24 -547h-172z" />
<glyph unicode="#" d="M78 401l28 181h220l36 229h-217l29 178h217l62 377h161l-61 -377h231l62 377h162l-62 -377h217l-30 -178h-218l-34 -229h215l-31 -181h-215l-66 -401h-159l65 401h-233l-66 -401h-160l66 401h-219zM487 582h234l35 229h-232z" />
<glyph unicode="$" d="M111 848v256q0 147 91 204.5t279 57.5h64v205h160v-205h401v-225h-401v-340h147q152 0 214 -87t62 -259v-179q0 -276 -303 -276h-120v-274h-160v274h-412v221h412v352h-164q-139 0 -204.5 68t-65.5 207zM334 920q0 -66 34.5 -92.5t106.5 -26.5h70v340q-133 0 -172 -22.5 t-39 -98.5v-100zM705 221q129 0 165.5 26.5t36.5 114.5v93q0 74 -33.5 96t-101.5 22h-67v-352z" />
<glyph unicode="%" horiz-adv-x="1937" d="M127 766v408q0 98 47 145t152 47h221q109 0 155 -46t46 -146v-408q0 -193 -201 -193h-217q-203 0 -203 193zM285 807q0 -76 80 -76h149q78 0 78 72v330q0 41 -17.5 58t-60.5 17h-152q-78 0 -77 -75v-326zM506 -29l778 1424h146l-779 -1424h-145zM1190 193v405 q0 98 46 146.5t150 48.5h222q109 0 155.5 -46.5t46.5 -148.5v-405q0 -193 -202 -193h-217q-201 0 -201 193zM1346 233q0 -78 79 -77h150q78 0 78 71v330q0 41 -17.5 59.5t-60.5 18.5h-152q-78 0 -77 -78v-324z" />
<glyph unicode="&#x26;" horiz-adv-x="1294" d="M117 274v146q0 102 57 170.5t170 134.5l-63 68q-66 78 -66 186v113q0 129 77 201.5t212 72.5h178q119 0 199 -67.5t80 -184.5v-143q0 -92 -42 -146.5t-131 -99.5l-110 -55l264 -279q14 25 14 80v158h230v-223q0 -141 -66 -211l178 -195h-297l-55 63q-61 -41 -105 -52 t-124 -11h-299q-133 0 -217 71.5t-84 202.5zM338 324q0 -109 137 -109h201q72 0 110 29l-309 327q-10 -6 -35.5 -20t-35 -19.5t-27 -19.5t-23.5 -25.5t-12 -29t-6 -39.5v-94zM436 1001q0 -61 60 -129l47 -55l108 55q90 43 90 125v58q0 102 -96 102h-108q-100 0 -101 -100 v-56z" />
<glyph unicode="'" horiz-adv-x="438" d="M111 1479h217l-23 -547h-174z" />
<glyph unicode="(" horiz-adv-x="716" d="M121 524q0 154 29.5 304.5t72.5 255t85 187.5t73 122l29 41h227q-12 -12 -31.5 -37t-70 -112t-89 -184t-70.5 -254t-32 -325q0 -166 29.5 -321.5t74 -258t87.5 -181t71 -113.5l31 -37h-227q-12 14 -32 40.5t-69 117t-88 189.5t-69.5 252.5t-30.5 313.5z" />
<glyph unicode=")" horiz-adv-x="716" d="M80 -389q12 12 31.5 37.5t69.5 111.5t89 184.5t71 255t32 322.5q0 168 -30 323.5t-74 257t-87 180.5t-71 114l-31 37h227q12 -14 31.5 -42t69 -119t88.5 -190.5t69.5 -252t30.5 -306.5q0 -160 -29.5 -311.5t-72.5 -255.5t-85 -186t-73 -121l-29 -39h-227z" />
<glyph unicode="*" horiz-adv-x="813" d="M80 1128l37 115l231 -82l-4 246h123l-4 -246l229 82l41 -115l-233 -73l145 -197l-94 -72l-148 201l-143 -201l-100 74l149 195z" />
<glyph unicode="+" d="M178 432v178h348v351h187v-351h348v-178h-348v-352h-187v352h-348z" />
<glyph unicode="," horiz-adv-x="438" d="M74 -195l88 193q-8 4 -20.5 11t-34 39t-21.5 71q0 57 37 97t96 40q63 0 99 -40t36 -101q0 -59 -45 -138l-100 -172h-135z" />
<glyph unicode="-" horiz-adv-x="610" d="M0 424v203h608v-203h-608z" />
<glyph unicode="." horiz-adv-x="438" d="M84 120.5q0 57.5 37 96.5t96 39q61 0 98 -39t37 -96.5t-35.5 -95t-99.5 -37.5q-59 0 -96 37.5t-37 95z" />
<glyph unicode="/" horiz-adv-x="1017" d="M-68 -412l856 1915h213q-569 -1278 -856 -1915h-213z" />
<glyph unicode="0" d="M100 303v756q0 156 74 231.5t240 75.5h411q170 0 244 -72.5t74 -234.5v-754q0 -305 -322 -305h-397q-164 0 -244 73.5t-80 229.5zM324 373q0 -78 37.5 -114t119.5 -36h285q78 0 115 31t39 108v629q0 80 -35 115t-117 35h-293q-80 0 -115.5 -35t-35.5 -115v-618z" />
<glyph unicode="1" d="M362 1141v225h478v-1366h-226v1141h-252z" />
<glyph unicode="2" d="M150 0v422q0 86 12 147.5t41.5 114.5t88 80t144.5 27h283q74 0 110.5 25.5t36.5 98.5v109q0 70 -35.5 93.5t-109.5 23.5h-571v225h645q152 0 224.5 -63.5t72.5 -208.5v-195q0 -178 -57.5 -257t-198.5 -79h-316q-147 0 -147 -125v-217h717v-221h-940z" />
<glyph unicode="3" d="M143 0v223h588q133 0 133 129v103q0 123 -135 123h-293v219h293q72 0 102.5 25.5t30.5 99.5v106q0 66 -31.5 89.5t-105.5 23.5h-582v225h633q158 0 233.5 -62.5t75.5 -201.5v-195q0 -76 -38.5 -135t-108.5 -86q147 -45 147 -207v-209q0 -127 -78.5 -198.5t-222.5 -71.5 h-641z" />
<glyph unicode="4" d="M68 504q0 53 32 112l359 750h243l-364 -760h520v760h223v-1366h-223v383h-573q-47 0 -77 3t-67 13.5t-55 37t-18 67.5z" />
<glyph unicode="5" d="M147 0v223h580q68 0 103.5 26.5t35.5 96.5v162q0 72 -29.5 103.5t-99.5 31.5h-583v723h919v-225h-694v-273h416q295 0 295 -293v-290q0 -139 -76 -212t-221 -73h-646z" />
<glyph unicode="6" d="M111 319v748q0 299 321 299h682v-225h-637q-78 0 -111.5 -36t-31.5 -112v-121h506q158 0 224 -65.5t66 -214.5v-307q0 -139 -77.5 -212t-216.5 -73h-412q-164 0 -238.5 78.5t-74.5 240.5zM334 371q0 -80 36 -114t113 -34h297q127 0 127 127v156q0 70 -30.5 101.5 t-100.5 31.5h-442v-268z" />
<glyph unicode="7" d="M141 1141v225h799q96 0 137 -24.5t41 -92.5q0 -47 -51 -166l-459 -1083h-239q164 379 487 1141h-715z" />
<glyph unicode="8" d="M106 283v192q0 59 20.5 106.5t51.5 71t49.5 33.5t30.5 14q-6 2 -16.5 7.5t-33 23t-39.5 40t-30.5 61t-13.5 86.5v165q0 156 78 219.5t239 63.5h361q166 0 238.5 -62.5t72.5 -220.5v-168q0 -45 -13.5 -82.5t-30.5 -60t-38.5 -40t-33 -24t-19.5 -8.5q8 -2 20.5 -7t38 -21.5 t45 -39t36 -64.5t16.5 -91v-188q0 -289 -318 -289h-401q-310 0 -310 283zM330 362q0 -51 8 -80.5t32.5 -43t46 -15.5t68.5 -2h263q88 0 125.5 19.5t37.5 91.5v121q0 92 -31.5 117.5t-127.5 25.5h-265q-80 0 -118.5 -21.5t-38.5 -93.5v-119zM348 934q0 -86 31 -106.5 t117 -20.5h247q94 0 121 21.5t27 105.5v61q0 98 -24.5 122t-127.5 24h-231q-94 0 -127 -19.5t-33 -97.5v-90z" />
<glyph unicode="9" d="M111 774v307q0 139 78.5 212t216.5 73h411q164 0 238.5 -79t74.5 -240v-748q0 -299 -321 -299h-682v225h637q78 0 111.5 36t33.5 112l-2 121h-506q-158 0 -224 65t-66 215zM334 860q0 -133 131 -133h442v268q0 80 -35.5 114t-113.5 34h-295q-129 0 -129 -127v-156z" />
<glyph unicode=":" horiz-adv-x="438" d="M127 120.5q0 57.5 37 96.5t96 39q61 0 98 -39t37 -96.5t-35.5 -95t-99.5 -37.5q-59 0 -96 37.5t-37 95zM127 801q0 57 37 96t96 39q61 0 98 -39t37 -96q0 -55 -36.5 -94t-98.5 -39q-59 0 -96 39t-37 94z" />
<glyph unicode=";" horiz-adv-x="438" d="M113 -195l88 193q-8 4 -20.5 11t-34 39t-21.5 71q0 57 37 97t98.5 40t97 -40t35.5 -101q0 -59 -45 -138l-100 -172h-135zM127 801q0 57 37 96t96 39q61 0 98 -39t37 -96q0 -55 -36.5 -94t-98.5 -39q-59 0 -96 39t-37 94z" />
<glyph unicode="&#x3c;" d="M195 420v201l852 350v-207q-504 -195 -674 -246q16 -8 111.5 -35.5t162.5 -54.5l400 -149v-203z" />
<glyph unicode="=" d="M178 258v174h883v-174h-883zM178 614v174h883v-174h-883z" />
<glyph unicode="&#x3e;" d="M195 76v207q504 193 673 245q-16 8 -111 36t-163 54l-399 150v203l852 -344v-201z" />
<glyph unicode="?" horiz-adv-x="1021" d="M133 1141v225h526q143 0 215 -60.5t72 -197.5v-254q0 -244 -246 -244h-135q-53 0 -53 -59v-164h-223v268q0 160 166 160h141q63 0 95 21.5t32 81.5v114q0 109 -131 109h-459zM266 116.5q0 55.5 38 95.5t93.5 40t93 -40t37.5 -95.5t-37.5 -92t-93 -36.5t-93.5 36.5t-38 92 z" />
<glyph unicode="@" horiz-adv-x="2265" d="M260 1108q0 139 75 218t224 79h1163q293 0 293 -285q0 -139 -1 -421.5t-1 -424.5q0 -274 -266 -274h-770q-250 0 -250 240v483q0 244 244 244h557v-770h155q72 0 103 29.5t31 103.5v733q0 74 -34 108.5t-114 34.5h-1069q-141 0 -141 -141q0 -195 -1 -584t-1 -583 q0 -78 34.5 -112t114.5 -34h963v-198h-998q-141 0 -225 77.5t-84 225.5q0 207 -1 624.5t-1 626.5zM926 313q0 -117 114 -116h289q0 381 -2 571h-287q-59 0 -86.5 -24.5t-27.5 -86.5v-344z" />
<glyph unicode="A" horiz-adv-x="1198" d="M-2 0l424 1239q49 141 178 141q127 0 176 -141l424 -1239h-235l-113 326h-504l-108 -326h-242zM401 541h396l-199 594z" />
<glyph unicode="B" horiz-adv-x="1196" d="M113 0v1366h686q281 0 280 -287v-145q0 -59 -6 -94t-33.5 -75t-81.5 -65q133 -66 134 -247v-166q0 -287 -297 -287h-682zM336 799h360q84 0 123 22.5t39 98.5v98q0 125 -125 125h-397v-344zM338 223h352q90 0 133 25.5t43 97.5v84q0 88 -28.5 123t-108.5 35h-391v-365z " />
<glyph unicode="C" horiz-adv-x="1060" d="M104 305v754q0 154 75 230.5t245 76.5h571v-225h-514q-152 0 -151 -133v-625q0 -90 33.5 -126t121.5 -36h510v-221h-610q-281 0 -281 305z" />
<glyph unicode="D" horiz-adv-x="1222" d="M113 0v1366h706q297 0 297 -307v-750q0 -141 -75.5 -225t-215.5 -84h-712zM338 223h410q80 0 112.5 40t32.5 122v614q0 78 -34 110t-111 32h-410v-918z" />
<glyph unicode="E" horiz-adv-x="1093" d="M113 289v776q0 139 78.5 220t218.5 81h591v-225h-540q-55 0 -89 -39t-34 -96v-211h653v-226h-653v-207q0 -78 40 -108.5t118 -30.5h505v-223h-567q-147 0 -234 73t-87 216z" />
<glyph unicode="F" horiz-adv-x="1034" d="M102 0v1087q0 131 80 205t232 74h579v-225h-518q-147 0 -147 -129v-217h657v-226h-657v-569h-226z" />
<glyph unicode="G" horiz-adv-x="1185" d="M106 317v723q0 158 77 242t255 84h580v-225h-533q-74 0 -114.5 -24.5t-40.5 -98.5v-668q0 -127 147 -127h246q72 0 103.5 31t31.5 104v404h223v-436q0 -326 -299 -326h-344q-166 0 -249 71.5t-83 245.5z" />
<glyph unicode="H" horiz-adv-x="1222" d="M113 0v1366h225v-549h549v549h223v-1366h-223v592h-549v-592h-225z" />
<glyph unicode="I" horiz-adv-x="450" d="M113 0v1366h225v-1366h-225z" />
<glyph unicode="J" horiz-adv-x="593" d="M25 0v223h63q98 0 138 41t40 137v965h223v-1036q0 -330 -303 -330h-161z" />
<glyph unicode="K" horiz-adv-x="1071" d="M113 0v1366h225v-1366h-225zM360 694q0 37 56 115l399 557h260l-477 -672l494 -694h-263l-411 565q-58 82 -58 129z" />
<glyph unicode="L" horiz-adv-x="1013" d="M106 330v1036h224v-979q0 -100 39 -132t131 -32h446v-223h-502q-174 0 -256 78t-82 252z" />
<glyph unicode="M" horiz-adv-x="1595" d="M113 0v1186q0 90 54 142t144 52q150 0 183 -143l301 -924l305 924q39 143 188 143q88 0 141.5 -53t53.5 -141v-1186h-215v1055l-314 -926q-39 -150 -153.5 -149.5t-155.5 145.5l-317 930v-1055h-215z" />
<glyph unicode="N" horiz-adv-x="1212" d="M113 0v1165q0 96 46 154.5t138 58.5q150 0 197 -172l391 -919v1079h215v-1157q0 -225 -166 -225q-55 0 -93 14t-61.5 45t-35 57.5t-25.5 71.5l-391 905v-1077h-215z" />
<glyph unicode="O" horiz-adv-x="1210" d="M104 303v756q0 156 74 231.5t242 75.5h368q170 0 244 -72.5t74 -234.5v-754q0 -305 -322 -305h-356q-324 0 -324 303zM330 373q0 -78 38 -114t117 -36h244q80 0 117 31t37 108v629q0 80 -34 115t-118 35h-252q-78 0 -113.5 -35t-35.5 -115v-618z" />
<glyph unicode="P" horiz-adv-x="1136" d="M113 0v1366h678q133 0 217 -66.5t84 -209.5v-297q0 -285 -287 -285h-467v-508h-225zM338 735h383q74 0 110.5 29t36.5 102v152q0 125 -141 125l-389 -2v-406z" />
<glyph unicode="Q" horiz-adv-x="1210" d="M104 303v754q0 158 74 233.5t240 75.5h370q170 0 244 -72.5t74 -236.5v-754q0 -248 -211 -293l283 -272l-322 -21l-266 283h-164q-162 0 -242 72.5t-80 230.5zM328 428q0 -111 33.5 -159t121.5 -48h191q111 0 160 26.5t49 114.5v570q0 117 -30 163t-122 46h-252 q-88 0 -119.5 -46t-31.5 -163v-504z" />
<glyph unicode="R" horiz-adv-x="1183" d="M113 1366h696q139 0 219 -73.5t80 -213.5v-245q0 -131 -75 -206t-206 -75h-155l475 -553h-273l-413 473q-59 80 -60 143q0 127 170 127h179q135 0 135 123v146q0 129 -146 129h-401v-1141h-223z" />
<glyph unicode="S" horiz-adv-x="1052" d="M88 850v254q0 129 77 195.5t218 66.5h561v-225h-485q-82 0 -116 -28t-34 -93v-98q0 -66 34 -92.5t108 -26.5h237q131 0 205 -73t74 -206v-248q0 -276 -305 -276h-551v223h485q82 0 115.5 34t33.5 105l-2 97q-2 70 -34.5 94.5t-100.5 24.5h-250q-139 0 -204.5 67.5 t-65.5 204.5z" />
<glyph unicode="T" horiz-adv-x="907" d="M14 1141v225h879v-225h-328v-1141h-223v1141h-328z" />
<glyph unicode="U" horiz-adv-x="1191" d="M102 322v1044h226v-989q0 -96 33.5 -125t132.5 -29h202q96 0 131 30t35 120v993h225v-1042q0 -160 -71.5 -242t-235.5 -82h-368q-156 0 -233 75t-77 247z" />
<glyph unicode="V" horiz-adv-x="1159" d="M-18 1366h235l361 -1067l362 1067h238l-439 -1249q-47 -137 -159.5 -137t-159.5 137z" />
<glyph unicode="W" horiz-adv-x="1605" d="M23 1366h219l223 -1042l164 886q25 172 180 172q82 0 119 -45t47 -127l166 -886l223 1042h219l-258 -1225q-33 -160 -178 -159q-86 0 -125 40.5t-49 116.5l-176 922l-164 -922q-23 -158 -176 -157q-88 0 -124 42t-52 123z" />
<glyph unicode="X" horiz-adv-x="1140" d="M-6 0l455 696l-435 670h267l284 -455l295 455h266l-432 -670l453 -696h-266l-318 485l-303 -485h-266z" />
<glyph unicode="Y" horiz-adv-x="1101" d="M-18 1366h256l305 -569l321 569h256l-458 -817v-549h-224v549z" />
<glyph unicode="Z" horiz-adv-x="1030" d="M41 115q0 74 57 157l594 869h-622v225h772q74 0 111.5 -22.5t37.5 -79.5q0 -70 -57 -164l-600 -877h618v-223h-743q-168 0 -168 115z" />
<glyph unicode="[" horiz-adv-x="716" d="M154 -115v1299q0 250 237 250h203v-203h-123q-59 0 -88 -20.5t-29 -80.5v-1196q0 -66 23.5 -93t91.5 -27h129v-203h-166q-141 0 -209.5 65.5t-68.5 208.5z" />
<glyph unicode="\" horiz-adv-x="1003" d="M6 1503h215q373 -838 858 -1915h-217q-287 637 -856 1915z" />
<glyph unicode="]" horiz-adv-x="716" d="M123 -186h129q68 0 91.5 27.5t23.5 92.5v1196q0 59 -29 80t-88 21h-123v203h203q238 0 237 -250v-1299q0 -143 -68.5 -208.5t-209.5 -65.5h-166v203z" />
<glyph unicode="^" d="M143 721l349 645h260l346 -645h-209l-268 487l-269 -487h-209z" />
<glyph unicode="_" d="M-4 -346q172 0 624.5 1t624.5 1v-164q-172 0 -624.5 -1t-624.5 -1v164z" />
<glyph unicode="`" horiz-adv-x="1024" d="M322 1487h233l141 -303h-186z" />
<glyph unicode="a" horiz-adv-x="1075" d="M104 244v194q0 121 70 188.5t191 67.5h405v39q0 104 -115 105h-528v202h567q129 0 202 -65.5t73 -194.5v-526q0 -111 -67.5 -182.5t-178.5 -71.5h-348q-121 0 -196 62.5t-75 181.5zM305 301q0 -98 111 -98h246q57 0 81.5 22.5t24.5 73.5v205h-354q-109 0 -109 -111v-92z " />
<glyph unicode="b" horiz-adv-x="1085" d="M104 264v1172h203v-396h412q123 0 190.5 -61t67.5 -180v-533q0 -266 -260 -266h-336q-277 0 -277 264zM307 313q0 -74 42 -92t132 -18h172q68 0 96.5 33.5t28.5 128.5v303q0 88 -23.5 129t-101.5 41h-346v-525z" />
<glyph unicode="c" horiz-adv-x="864" d="M104 274v514q0 252 238 252h457v-202h-377q-57 0 -87 -20.5t-30 -80.5v-413q0 -66 24.5 -93.5t92.5 -27.5h379v-203h-416q-141 0 -211 65.5t-70 208.5z" />
<glyph unicode="d" horiz-adv-x="1085" d="M104 266v434q0 178 53.5 259t204.5 81h414v396h201v-1172q0 -264 -275 -264h-249q-184 0 -266.5 54t-82.5 212zM305 365q0 -94 27.5 -128t97.5 -34h170q45 0 69.5 2t53.5 12t41 33.5t12 62.5v525h-348q-78 0 -100.5 -41t-22.5 -129v-303z" />
<glyph unicode="e" horiz-adv-x="1052" d="M104 279v501q0 123 71 191.5t196 68.5h334q262 0 262 -260v-248l-662 -147v-61q0 -72 32 -96.5t103 -24.5h525v-203h-570q-291 0 -291 279zM305 565l457 107v61q0 59 -33 82t-119 23h-147q-84 0 -121 -22.5t-37 -90.5v-160z" />
<glyph unicode="f" horiz-adv-x="507" d="M106 0v1186q0 250 267 250h172v-197h-105q-133 0 -133 -117v-82h217v-202h-217v-838h-201z" />
<glyph unicode="g" horiz-adv-x="1087" d="M106 240v534q0 266 263 266h338q272 0 272 -264v-887q0 -141 -67.5 -209.5t-211.5 -68.5h-589v203h538q74 0 101.5 27.5t27.5 84.5v74h-420q-133 0 -192.5 58.5t-59.5 181.5zM307 325q0 -13 5 -46t16.5 -43.5t35 -21.5t58.5 -11h356v524q0 63 -29.5 87t-93.5 24h-176h-10 q-39 0 -59.5 -2t-48 -11.5t-41 -33t-13.5 -62.5v-344v-60z" />
<glyph unicode="h" horiz-adv-x="1071" d="M104 0v1436h201v-396h391q270 0 271 -256v-784h-201v711q0 72 -24.5 99.5t-98.5 27.5h-338l2 -838h-203z" />
<glyph unicode="i" horiz-adv-x="413" d="M74 1311q0 55 38 94t95 39t96 -38t39 -93q0 -57 -38 -96t-97.5 -39t-96 38t-36.5 95zM106 0v1040h201v-1040h-201z" />
<glyph unicode="j" horiz-adv-x="411" d="M-111 -186h113q66 0 89.5 26.5t23.5 96.5v1103h198v-1136q0 -147 -62.5 -220t-203.5 -73h-158v203zM80 1311q0 55 38 94t95 39t96 -38t39 -93q0 -57 -39 -96t-96 -39q-59 0 -96 38t-37 95z" />
<glyph unicode="k" horiz-adv-x="956" d="M106 0v1436h201v-1436h-201zM317 559q0 37 35 82l326 399h240l-386 -481l410 -559h-246l-350 487q-29 39 -29 72z" />
<glyph unicode="l" horiz-adv-x="413" d="M106 0v1436h201v-1436h-201z" />
<glyph unicode="m" horiz-adv-x="1480" d="M104 0v776q0 264 234 264h252q57 0 95 -27.5t48 -54.5l8 -28q4 12 11.5 30.5t46.5 49t92 30.5h254q121 0 176 -65.5t55 -198.5v-776h-202v725q0 57 -23 85t-82 28h-121q-109 0 -108 -119v-719h-201v729q0 57 -24.5 83t-82.5 26h-116q-113 0 -113 -117q0 -119 1 -360.5 t1 -360.5h-201z" />
<glyph unicode="n" horiz-adv-x="1069" d="M106 0v788q0 252 263 252h333q260 0 261 -252v-788h-201v729q0 61 -28.5 85t-90.5 24h-215q-63 0 -92 -23.5t-29 -85.5v-729h-201z" />
<glyph unicode="o" horiz-adv-x="1079" d="M106 244v549q0 117 63.5 182t188.5 65h369q121 0 183.5 -63.5t62.5 -183.5v-549q0 -115 -62.5 -179.5t-181.5 -64.5h-373q-250 0 -250 244zM307 307q0 -104 115 -104h242q109 0 108 106v418q0 59 -25.5 85t-84.5 26h-238q-117 0 -117 -107v-424z" />
<glyph unicode="p" horiz-adv-x="1081" d="M104 -389v1165q0 264 277 264h250q180 0 263 -54t83 -212v-434q0 -178 -53.5 -259t-204.5 -81h-412v-389h-203zM307 203h346q78 0 101.5 41t23.5 129v303q0 94 -28.5 128t-96.5 34h-172q-47 0 -70.5 -2t-51 -12.5t-40 -34t-12.5 -62.5v-524z" />
<glyph unicode="q" horiz-adv-x="1081" d="M104 242v532q0 266 263 266h335q274 0 275 -264v-1165h-201v389h-414q-123 0 -190.5 61.5t-67.5 180.5zM305 387q0 -39 1 -59.5t7 -48t18.5 -42t37 -24.5t59.5 -10h348v524q0 74 -43 92.5t-133 18.5h-121q-109 0 -141 -25q-33 -27 -33 -84v-342z" />
<glyph unicode="r" horiz-adv-x="524" d="M104 0v764q0 276 275 276h147v-202h-90q-80 0 -105.5 -28t-25.5 -99v-711h-201z" />
<glyph unicode="s" horiz-adv-x="956" d="M84 690v119q0 115 67.5 173t186.5 58h520v-202h-465q-61 0 -84.5 -19.5t-23.5 -62.5v-49q0 -53 28.5 -67.5t89.5 -14.5h234q78 0 127 -23.5t70.5 -69t27.5 -88.5t6 -106v-125q0 -102 -59 -157.5t-170 -55.5h-549v203h475q57 0 78 18.5t21 65.5v49q0 53 -27 69.5t-90 16.5 h-152q-182 0 -246.5 58t-64.5 210z" />
<glyph unicode="t" horiz-adv-x="503" d="M104 0v1366h203v-326h199v-202h-199v-838h-203z" />
<glyph unicode="u" horiz-adv-x="1069" d="M106 252v788h201v-727q0 -61 29 -85.5t92 -24.5h215q61 0 90 24.5t29 85.5v727h201v-788q0 -252 -261 -252h-333q-263 0 -263 252z" />
<glyph unicode="v" horiz-adv-x="1044" d="M0 1040h221l299 -798l303 798h221l-385 -960q-20 -49 -48.5 -74.5t-86.5 -25.5q-59 0 -90 25.5t-49 74.5z" />
<glyph unicode="w" horiz-adv-x="1392" d="M27 1040h198l183 -815l143 697q14 68 46 104.5t101.5 36.5t99 -36t44.5 -105l143 -697l184 815h197l-205 -901q-18 -76 -56 -117.5t-114 -41.5q-133 0 -164 151l-135 647l-129 -647q-31 -152 -164 -151q-131 0 -166 159z" />
<glyph unicode="x" horiz-adv-x="946" d="M4 0l356 539l-331 501h237l203 -305l209 305h237l-329 -501l354 -539h-238l-231 342l-227 -342h-240z" />
<glyph unicode="y" horiz-adv-x="1071" d="M104 -186h543q119 0 119 116v70h-371q-174 0 -232.5 62.5t-58.5 207.5v770h201v-714q0 -72 27.5 -97.5t95.5 -25.5h338v837h199v-1163q0 -129 -58.5 -197.5t-212.5 -68.5h-590v203z" />
<glyph unicode="z" horiz-adv-x="976" d="M55 133q0 57 66 127l522 578h-557v202h649q188 0 189 -129q0 -68 -64 -135l-520 -573h547v-203h-662q-170 0 -170 133z" />
<glyph unicode="{" horiz-adv-x="716" d="M49 449v169q66 16 90.5 55.5t24.5 110.5v365q0 160 65.5 222.5t235.5 62.5h139v-203h-53q-55 0 -80 -2t-54.5 -13.5t-39.5 -39t-10 -74.5v-277q0 -109 -25 -181.5t-100 -113.5q74 -41 99.5 -100t25.5 -151v-326q0 -84 41 -111.5t143 -27.5h55v-203h-133 q-160 0 -234.5 65.5t-74.5 225.5v364q0 78 -22.5 122.5t-92.5 60.5z" />
<glyph unicode="|" horiz-adv-x="512" d="M158 -391v1878h192v-1878h-192z" />
<glyph unicode="}" horiz-adv-x="716" d="M109 -186h55q102 0 143 27.5t41 111.5v326q0 92 25.5 151t99.5 100q-76 41 -100.5 114t-24.5 181v277q0 47 -10 74.5t-40 39t-54.5 13.5t-79.5 2h-53v203h139q170 0 235.5 -62.5t65.5 -222.5v-365q0 -72 24.5 -110.5t90.5 -55.5v-169q-70 -16 -92.5 -60.5t-22.5 -122.5 v-364q0 -160 -75 -225.5t-234 -65.5h-133v203z" />
<glyph unicode="~" d="M164 522q43 43 69.5 64.5t83 49.5t111.5 28q63 0 137 -31q20 -8 57 -25.5t61 -28t53.5 -18.5t54.5 -8q78 0 192 104q14 -20 44 -67t48 -72q-45 -43 -71.5 -65.5t-82 -47t-112.5 -24.5q-80 0 -135 27l-84 38q-92 41 -152 41q-14 0 -27.5 -3t-24.5 -7t-25.5 -13 t-23.5 -14.5t-23.5 -17.5t-19.5 -17t-20.5 -18.5t-17.5 -15.5z" />
<glyph unicode="&#xa1;" horiz-adv-x="518" d="M102 921.5q0 57.5 36 95.5t98 38q59 0 96 -39t37 -94q0 -57 -37 -96.5t-96.5 -39.5t-96.5 39t-37 96.5zM133 -326v965h205v-965h-205z" />
<glyph unicode="&#xa2;" d="M121 305v428q0 156 74.5 231.5t244.5 75.5h160v250h199v-250h297v-225h-297v-594h295v-221h-295v-274h-199v274h-199q-280 0 -280 305zM346 383q0 -90 34 -126t122 -36h98v594h-102q-152 0 -152 -133v-299z" />
<glyph unicode="&#xa3;" d="M70 608v168h192v291q0 299 285 299h268q262 0 262 -289v-114h-229v65q0 113 -96 113h-150q-113 0 -113 -117v-248h388v-168h-388v-162q0 -174 -92 -223h381q76 0 110 25.5t34 99.5v66h229v-103q0 -311 -313 -311h-723v225q145 2 145 224v159h-190z" />
<glyph unicode="&#xa4;" d="M82 1122l94 97l182 -181q121 86 265 86q135 0 260 -84l178 177l94 -95l-178 -178q92 -129 92 -260t-88 -258l178 -180l-92 -94l-180 180q-123 -88 -266 -88q-135 0 -263 86l-178 -178l-94 94l178 178q-90 127 -90 260t88 258zM350 684q0 -113 79 -193.5t191.5 -80.5 t192.5 79.5t80 194.5t-76 193.5t-194 78.5q-115 0 -194 -78.5t-79 -193.5z" />
<glyph unicode="&#xa5;" d="M66 1366h258l292 -498l302 498h256l-338 -539h274v-135h-360l-19 -30v-99h350v-135h-350v-428h-223v428h-346v135h346v99l-21 30h-354v135h270z" />
<glyph unicode="&#xa6;" horiz-adv-x="518" d="M160 350h196v-747h-196v747zM160 766v741h196v-741h-196z" />
<glyph unicode="&#xa7;" d="M135 387v225q0 131 146 185l-11 6q-8 4 -15 8t-19.5 13.5t-21.5 19.5t-19.5 24.5t-17.5 29.5t-11 35.5t-4 43.5v156q0 233 254 233h657v-203h-610q-61 0 -82 -18.5t-21 -63.5v-98q0 -51 27 -66.5t80 -15.5h407q63 0 108.5 -18.5t69 -44t36 -68.5t15.5 -78t3 -88v-164 q0 -53 -34 -95t-61.5 -57.5t-49.5 -23.5l22 -12q20 -12 39.5 -27.5t37 -44t17.5 -61.5q0 -16 1 -50t1 -53v-106q0 -102 -60.5 -157.5t-168.5 -55.5h-690v203h614q59 0 78.5 18.5t19.5 65.5v94q0 55 -26.5 71.5t-89.5 16.5h-394q-113 0 -170 57.5t-57 163.5zM334 479 q0 -18 2 -33.5t5 -26.5t10 -19.5t11.5 -14.5t16.5 -9t17 -5t20.5 -3t22.5 -1h27h26h272q84 0 109.5 16t25.5 70v118q0 84 -20.5 103.5t-94.5 23.5l-315 -2q-92 0 -113.5 -20.5t-21.5 -87.5v-109z" />
<glyph unicode="&#xa8;" horiz-adv-x="1024" d="M178 1310.5q0 55.5 38 94.5t95.5 39t96 -38t38.5 -93q0 -57 -37.5 -96t-97.5 -39q-57 0 -95 38.5t-38 94zM575 1310.5q0 55.5 38 94.5t95.5 39t96.5 -38t39 -93q0 -57 -38 -96t-97 -39q-57 0 -95.5 38.5t-38.5 94z" />
<glyph unicode="&#xa9;" horiz-adv-x="1402" d="M0 684q0 291 206 496.5t499 205.5q289 0 493.5 -207.5t204.5 -496.5t-206 -495.5t-495 -206.5q-291 0 -496.5 206.5t-205.5 497.5zM113 684q0 -248 171 -426t418 -178q246 0 417 178t171 424t-171 424t-416.5 178t-417.5 -176t-172 -424zM397 530v326q0 121 51.5 166 t178.5 45h317v-158h-278q-35 0 -53.5 -4t-32 -22.5t-13.5 -55.5v-247q0 -63 18.5 -84t82.5 -21h278v-158h-336q-102 0 -157.5 54.5t-55.5 158.5z" />
<glyph unicode="&#xaa;" horiz-adv-x="688" d="M76 887v94q0 74 43 116t117 42h237v41q0 57 -63 57h-314v129h336q168 0 168 -158v-315q0 -68 -41 -111t-108 -43h-209q-72 0 -119 38t-47 110zM80 446v132h522v-132h-522zM205 922q0 -55 61 -56h148q59 0 59 56v94h-207q-61 0 -61 -62v-32z" />
<glyph unicode="&#xab;" horiz-adv-x="1050" d="M63 522q0 35 46 99l239 337h234l-316 -432l318 -436h-242l-231 328q-48 63 -48 104zM463 522q0 27 47 99l240 337h235l-317 -432l317 -436h-242l-231 328q-49 65 -49 104z" />
<glyph unicode="&#xac;" d="M178 432v178h883v-530h-187v352h-696z" />
<glyph unicode="&#xad;" horiz-adv-x="610" d="M0 424v203h608v-203h-608z" />
<glyph unicode="&#xae;" horiz-adv-x="907" d="M0 1130.5q0 194.5 131 321.5t322 127q188 0 321 -127t133 -322q0 -197 -132 -323.5t-322 -126.5q-188 0 -320.5 128t-132.5 322.5zM94 1130.5q0 -157.5 103.5 -260t255 -102.5t256 102.5t104.5 260t-104.5 260t-256 102.5t-255 -102.5t-103.5 -260zM283 930v436h237 q106 0 107 -92v-76q0 -49 -20.5 -71.5t-88.5 -22.5l119 -172l-119 -2l-104 164v77h80q20 0 27 4.5t7 22.5v55q0 27 -34 27h-111v-350h-100z" />
<glyph unicode="&#xaf;" horiz-adv-x="1024" d="M186 1223v143h652v-143h-652z" />
<glyph unicode="&#xb0;" horiz-adv-x="831" d="M88 1132.5q0 139.5 93 228.5t235 89q145 0 237 -89t92 -228q0 -137 -93 -227.5t-236.5 -90.5t-235.5 89t-92 228.5zM242 1133q0 -78 49 -133.5t125 -55.5q78 0 127 54.5t49 134.5q0 82 -49 136t-127 54t-126 -54t-48 -136z" />
<glyph unicode="&#xb1;" d="M184 35v162h873v-162h-873zM184 537v168h348v270h177v-270h348v-168h-348v-256h-177v256h-348z" />
<glyph unicode="&#xb2;" horiz-adv-x="845" d="M131 532v299q0 186 182 187h168q76 0 76 61v72q0 35 -18.5 46t-57.5 11h-350v158h395q96 0 141.5 -40t45.5 -132v-121q0 -117 -36 -166t-126 -49h-186q-78 0 -78 -63v-107h426v-156h-582z" />
<glyph unicode="&#xb3;" horiz-adv-x="845" d="M125 530v158h317h17h17h16q10 0 14 1l12 3q8 2 11 5t8.5 7.5t7.5 9.5t4 13t2 16v76q0 55 -64 55h-190v154h190q63 0 64 55v72q0 18 -7 30.5t-23.5 16.5t-28 5t-35.5 1h-8h-324v158h377q123 0 164 -34t41 -134v-94q0 -31 -4.5 -55.5t-10.5 -38t-16 -25.5t-15.5 -16 t-17.5 -10.5t-14 -6.5q78 -43 78 -116v-138q0 -92 -46.5 -130t-173.5 -38h-362z" />
<glyph unicode="&#xb4;" horiz-adv-x="1024" d="M326 1184l141 305h233l-190 -305h-184z" />
<glyph unicode="&#xb5;" d="M168 -389v1429h199v-594q0 -309 251 -309q133 0 194.5 93.5t61.5 232.5v577h199v-1040h-199v152q-84 -176 -262 -177q-162 0 -245 142v-506h-199z" />
<glyph unicode="&#x3bc;" d="M168 -389v1429h199v-594q0 -309 251 -309q133 0 194.5 93.5t61.5 232.5v577h199v-1040h-199v152q-84 -176 -262 -177q-162 0 -245 142v-506h-199z" />
<glyph unicode="&#xb6;" horiz-adv-x="1177" d="M72 973q0 217 60.5 305t238.5 88h757v-156h-153v-1540h-170v1540h-162v-1540h-170v924h-123q-278 0 -278 379z" />
<glyph unicode="&#xb7;" horiz-adv-x="438" d="M84 526q0 57 37 96.5t96 39.5q61 0 98 -39t37 -96.5t-35.5 -95.5t-99.5 -38q-59 0 -96 39t-37 94z" />
<glyph unicode="&#xb8;" horiz-adv-x="1024" d="M293 -385h196q53 0 66.5 12.5t13.5 55.5v24q0 43 -13 55.5t-58 12.5h-41q-98 0 -99 104v121h142v-59q0 -33 8 -40t39 -7h49q135 0 135 -146v-129q0 -143 -174 -143h-264v139z" />
<glyph unicode="&#xb9;" horiz-adv-x="655" d="M125 1208v158h307v-834h-158v676h-149z" />
<glyph unicode="&#xba;" horiz-adv-x="679" d="M78 889v325q0 152 151 152h222q152 0 151 -152v-325q0 -150 -149 -150h-224q-151 0 -151 150zM80 449v129h522v-129h-522zM205 926q0 -57 63 -58h144q61 0 61 60v250q0 59 -61 59h-142q-66 0 -65 -59v-252z" />
<glyph unicode="&#xbb;" horiz-adv-x="1050" d="M61 958h244l232 -327q47 -68 47 -103q0 -33 -45 -100l-240 -338h-236q289 395 318 434q-240 328 -320 434zM463 958h244l229 -327q4 -8 16.5 -24.5t17.5 -25t10 -23.5t5 -30q0 -39 -45 -100l-240 -338h-235l315 434z" />
<glyph unicode="&#xbc;" horiz-adv-x="1964" d="M258 1208v158h307v-834h-157v676h-150zM512 -47l778 1460h162l-780 -1460h-160zM1206 326q0 33 15 57l213 451h174l-215 -451h268v451h158v-834h-158v227h-320q-135 1 -135 99z" />
<glyph unicode="&#xbd;" horiz-adv-x="1964" d="M258 1208v158h307v-834h-157v676h-150zM512 -47l778 1460h162l-780 -1460h-160zM1247 0v254q0 111 39 171t144 60h167q39 0 57.5 12.5t18.5 49.5v71q0 35 -18.5 46.5t-57.5 11.5h-350v158h346q125 0 180.5 -36t55.5 -139v-120q0 -115 -36 -164t-126 -49h-186 q-78 0 -78 -64v-106h426v-156h-582z" />
<glyph unicode="&#xbe;" horiz-adv-x="1964" d="M125 530v158h317h17h17h16q10 0 14 1l12 3q8 2 11 5t8.5 7.5t7.5 9.5t4 13t2 16v76q0 55 -64 55h-190v154h190q63 0 64 55v72q0 18 -7 30.5t-23.5 16.5t-28 5t-35.5 1h-8h-324v158h377q123 0 164 -34t41 -134v-94q0 -31 -4.5 -55.5t-10.5 -38t-16 -25.5t-15.5 -16 t-17.5 -10.5t-14 -6.5q78 -43 78 -116v-138q0 -92 -46.5 -130t-173.5 -38h-362zM512 -47l778 1460h162l-780 -1460h-160zM1206 326q0 33 15 57l213 451h174l-215 -451h268v451h158v-834h-158v227h-320q-135 1 -135 99z" />
<glyph unicode="&#xbf;" horiz-adv-x="1021" d="M76 -66v254q0 244 246 244h135q31 0 42 14.5t11 47.5v161h223v-266q0 -162 -166 -162h-141q-63 0 -95 -21.5t-32 -80.5v-115q0 -109 131 -108h459v-226h-527q-143 0 -214.5 60.5t-71.5 197.5zM494 925.5q0 55.5 38.5 93.5t92 38t92.5 -38t39 -93.5t-38 -95t-93.5 -39.5 t-93 39.5t-37.5 95z" />
<glyph unicode="&#xc0;" horiz-adv-x="1198" d="M-2 0l424 1239q49 141 178 141q127 0 176 -141l424 -1239h-235l-113 326h-504l-108 -326h-242zM330 1823h239q18 -41 67.5 -145.5l76.5 -161.5h-189q-38 63 -194 307zM401 541h396l-199 594z" />
<glyph unicode="&#xc1;" horiz-adv-x="1198" d="M-2 0l424 1239q49 141 178 141q127 0 176 -141l424 -1239h-235l-113 326h-504l-108 -326h-242zM401 541h396l-199 594zM483 1518l144 307h239l-194 -307h-189z" />
<glyph unicode="&#xc2;" horiz-adv-x="1198" d="M-2 0l424 1239q49 141 178 141q127 0 176 -141l424 -1239h-235l-113 326h-504l-108 -326h-242zM258 1485l240 334h207l229 -334h-191l-147 233l-150 -233h-188zM401 541h396l-199 594z" />
<glyph unicode="&#xc3;" horiz-adv-x="1198" d="M-2 0l424 1239q49 141 178 141q127 0 176 -141l424 -1239h-235l-113 326h-504l-108 -326h-242zM287 1493v162q8 10 21.5 24.5t55.5 39t82 24.5q80 0 168 -33t142 -33q88 0 151 84v-155q-59 -74 -147 -74q-68 0 -164 33.5t-154 33.5q-79 -4 -155 -106zM401 541h396 l-199 594z" />
<glyph unicode="&#xc4;" horiz-adv-x="1198" d="M-2 0l424 1239q49 141 178 141q127 0 176 -141l424 -1239h-235l-113 326h-504l-108 -326h-242zM256 1659q0 55 39 95t96.5 40t96 -39t38.5 -94q0 -57 -37.5 -97t-97 -40t-97.5 39t-38 96zM401 541h396l-199 594zM668 1659q0 55 38.5 95t96 40t96.5 -39t39 -94 q0 -57 -38 -97t-97.5 -40t-97 39t-37.5 96z" />
<glyph unicode="&#xc5;" horiz-adv-x="1198" d="M-2 0l424 1239q49 141 178 141q127 0 176 -141l424 -1239h-235l-113 326h-504l-108 -326h-242zM352 1655q0 90 71 150.5t177 60.5q104 0 173 -61.5t69 -149.5q0 -96 -71 -156.5t-173 -60.5q-104 0 -175 60.5t-71 156.5zM401 541h396l-199 594zM483 1655q0 -49 31 -82 t84 -33q51 0 82 33t31 82t-31 81.5t-84 32.5q-51 0 -82 -32.5t-31 -81.5z" />
<glyph unicode="&#xc6;" horiz-adv-x="1771" d="M-4 0l653 1204q49 94 113.5 128t185.5 34h735v-225h-536q-109 0 -109 -111v-229h648v-223h-648v-222q0 -78 51.5 -106.5t174.5 -28.5h419v-221h-569q-141 0 -219 73.5t-78 200.5v50h-403l-168 -324h-250zM516 535h299v575z" />
<glyph unicode="&#xc7;" horiz-adv-x="1060" d="M104 305v754q0 154 75 230.5t245 76.5h571v-225h-514q-152 0 -151 -133v-625q0 -90 33.5 -126t121.5 -36h510v-221h-424v-61q0 -33 8.5 -40.5t38.5 -7.5h54q139 0 139 -149v-135q0 -76 -42 -114t-140 -38h-275v148h205q53 0 67.5 12t14.5 57v25q0 43 -14.5 56.5 t-59.5 13.5h-43q-102 0 -102 110v123h-37q-281 0 -281 305z" />
<glyph unicode="&#xc8;" horiz-adv-x="1093" d="M113 289v776q0 139 78.5 220t218.5 81h591v-225h-540q-55 0 -89 -39t-34 -96v-211h653v-226h-653v-207q0 -78 40 -108.5t118 -30.5h505v-223h-567q-147 0 -234 73t-87 216zM350 1823h240q18 -41 67.5 -145.5t75.5 -161.5h-188q-39 63 -195 307z" />
<glyph unicode="&#xc9;" horiz-adv-x="1093" d="M113 289v776q0 139 78.5 220t218.5 81h591v-225h-540q-55 0 -89 -39t-34 -96v-211h653v-226h-653v-207q0 -78 40 -108.5t118 -30.5h505v-223h-567q-147 0 -234 73t-87 216zM459 1518l143 307h240l-195 -307h-188z" />
<glyph unicode="&#xca;" horiz-adv-x="1093" d="M113 289v776q0 139 78.5 220t218.5 81h591v-225h-540q-55 0 -89 -39t-34 -96v-211h653v-226h-653v-207q0 -78 40 -108.5t118 -30.5h505v-223h-567q-147 0 -234 73t-87 216zM244 1497l239 334h207l230 -334h-191l-147 234l-150 -234h-188z" />
<glyph unicode="&#xcb;" horiz-adv-x="1093" d="M113 289v776q0 139 78.5 220t218.5 81h591v-225h-540q-55 0 -89 -39t-34 -96v-211h653v-226h-653v-207q0 -78 40 -108.5t118 -30.5h505v-223h-567q-147 0 -234 73t-87 216zM246 1659q0 55 39 95t96 40t96 -39t39 -94q0 -57 -38 -97t-97 -40t-97 39t-38 96zM657 1659 q0 55 39 95t96.5 40t96.5 -39t39 -94q0 -57 -38 -97t-97.5 -40t-97.5 39t-38 96z" />
<glyph unicode="&#xcc;" horiz-adv-x="450" d="M-37 1823h240q18 -41 67 -145.5t76 -161.5h-188q-39 63 -195 307zM113 0v1366h225v-1366h-225z" />
<glyph unicode="&#xcd;" horiz-adv-x="450" d="M109 1518l143 307h240l-195 -307h-188zM113 0v1366h225v-1366h-225z" />
<glyph unicode="&#xce;" horiz-adv-x="450" d="M-113 1497l240 334h207l229 -334h-190l-148 234l-149 -234h-189zM113 0v1366h225v-1366h-225z" />
<glyph unicode="&#xcf;" horiz-adv-x="450" d="M-74 1659q0 57 33 96t88 39q57 0 89 -38t32 -95q0 -59 -32 -98t-89 -39t-89 39t-32 96zM113 0v1366h225v-1366h-225zM285 1659q0 57 31.5 96t86.5 39q57 0 90 -38t33 -95q0 -59 -32.5 -98t-90 -39t-88 38t-30.5 97z" />
<glyph unicode="&#xd0;" horiz-adv-x="1222" d="M-35 584v225h148v557h706q297 0 297 -307v-750q0 -143 -75.5 -226t-217.5 -83h-710v584h-148zM336 221h409q80 0 114 40t34 124v557q0 117 -29.5 158t-118.5 41h-409v-332h309v-225h-309v-363z" />
<glyph unicode="&#xd1;" horiz-adv-x="1212" d="M113 0v1165q0 96 46 154.5t138 58.5q150 0 197 -172l391 -919v1079h215v-1157q0 -225 -166 -225q-55 0 -93 14t-61.5 45t-35 57.5t-25.5 71.5l-391 905v-1077h-215zM293 1493v162q8 10 21.5 24.5t55.5 39t83 24.5q80 0 168 -33t141 -33q88 0 151 84v-155 q-59 -74 -147 -74q-68 0 -164 33.5t-153 33.5q-80 -4 -156 -106z" />
<glyph unicode="&#xd2;" horiz-adv-x="1210" d="M104 303v756q0 156 74 231.5t242 75.5h368q170 0 244 -72.5t74 -234.5v-754q0 -305 -322 -305h-356q-324 0 -324 303zM330 373q0 -78 38 -114t117 -36h244q80 0 117 31t37 108v629q0 80 -34 115t-118 35h-252q-78 0 -113.5 -35t-35.5 -115v-618zM346 1823h240 q18 -41 67 -145.5t76 -161.5h-188q-39 63 -195 307z" />
<glyph unicode="&#xd3;" horiz-adv-x="1210" d="M104 303v756q0 156 74 231.5t242 75.5h368q170 0 244 -72.5t74 -234.5v-754q0 -305 -322 -305h-356q-324 0 -324 303zM330 373q0 -78 38 -114t117 -36h244q80 0 117 31t37 108v629q0 80 -34 115t-118 35h-252q-78 0 -113.5 -35t-35.5 -115v-618zM492 1518l143 307h239 l-194 -307h-188z" />
<glyph unicode="&#xd4;" horiz-adv-x="1210" d="M104 303v756q0 156 74 231.5t242 75.5h368q170 0 244 -72.5t74 -234.5v-754q0 -305 -322 -305h-356q-324 0 -324 303zM264 1497l240 334h207l229 -334h-190l-148 234l-149 -234h-189zM330 373q0 -78 38 -114t117 -36h244q80 0 117 31t37 108v629q0 80 -34 115t-118 35 h-252q-78 0 -113.5 -35t-35.5 -115v-618z" />
<glyph unicode="&#xd5;" horiz-adv-x="1210" d="M104 303v756q0 156 74 231.5t242 75.5h368q170 0 244 -72.5t74 -234.5v-754q0 -305 -322 -305h-356q-324 0 -324 303zM293 1493v162q8 10 21.5 24.5t55.5 39t83 24.5q80 0 168 -33t141 -33q88 0 151 84v-155q-59 -74 -147 -74q-68 0 -164 33.5t-153 33.5 q-80 -4 -156 -106zM330 373q0 -78 38 -114t117 -36h244q80 0 117 31t37 108v629q0 80 -34 115t-118 35h-252q-78 0 -113.5 -35t-35.5 -115v-618z" />
<glyph unicode="&#xd6;" horiz-adv-x="1210" d="M104 303v756q0 156 74 231.5t242 75.5h368q170 0 244 -72.5t74 -234.5v-754q0 -305 -322 -305h-356q-324 0 -324 303zM262 1659q0 55 39 95t96.5 40t96 -39t38.5 -94q0 -57 -37.5 -97t-97 -40t-97.5 39t-38 96zM330 373q0 -78 38 -114t117 -36h244q80 0 117 31t37 108 v629q0 80 -34 115t-118 35h-252q-78 0 -113.5 -35t-35.5 -115v-618zM674 1659q0 55 39 95t96 40t96 -39t39 -94q0 -57 -38 -97t-97 -40t-97 39t-38 96z" />
<glyph unicode="&#xd7;" d="M213 795l133 133l277 -279l276 277l125 -127l-274 -275l276 -278l-131 -133l-279 278l-274 -274l-127 125l274 274z" />
<glyph unicode="&#xd8;" horiz-adv-x="1212" d="M8 -96l82 123q53 80 64 94q-49 78 -50 182v754q0 309 324 309h358q109 0 175 -37l83 123h160l-141 -209q43 -72 43 -186v-754q0 -303 -322 -303h-356q-115 0 -174 31l-86 -127h-160zM330 498q0 -59 12 -97l479 719q-37 20 -129 21h-170q-109 0 -150.5 -31t-41.5 -119 v-493zM395 242q31 -20 142 -21h196q78 0 115 33t37 108v488q0 55 -13 106z" />
<glyph unicode="&#xd9;" horiz-adv-x="1191" d="M102 322v1044h226v-989q0 -96 33.5 -125t132.5 -29h202q96 0 131 30t35 120v993h225v-1042q0 -160 -71.5 -242t-235.5 -82h-368q-156 0 -233 75t-77 247zM332 1823h239q18 -41 67.5 -145.5l76.5 -161.5h-189q-38 63 -194 307z" />
<glyph unicode="&#xda;" horiz-adv-x="1191" d="M102 322v1044h226v-989q0 -96 33.5 -125t132.5 -29h202q96 0 131 30t35 120v993h225v-1042q0 -160 -71.5 -242t-235.5 -82h-368q-156 0 -233 75t-77 247zM459 1518l143 307h240l-195 -307h-188z" />
<glyph unicode="&#xdb;" horiz-adv-x="1191" d="M102 322v1044h226v-989q0 -96 33.5 -125t132.5 -29h202q96 0 131 30t35 120v993h225v-1042q0 -160 -71.5 -242t-235.5 -82h-368q-156 0 -233 75t-77 247zM254 1497l240 334h206l230 -334h-191l-147 234l-150 -234h-188z" />
<glyph unicode="&#xdc;" horiz-adv-x="1191" d="M102 322v1044h226v-989q0 -96 33.5 -125t132.5 -29h202q96 0 131 30t35 120v993h225v-1042q0 -160 -71.5 -242t-235.5 -82h-368q-156 0 -233 75t-77 247zM252 1659q0 55 39 95t96 40t96 -39t39 -94q0 -57 -38 -97t-97 -40t-97 39t-38 96zM664 1659q0 55 38.5 95t96 40 t96.5 -39t39 -94q0 -57 -38 -97t-97.5 -40t-97 39t-37.5 96z" />
<glyph unicode="&#xdd;" horiz-adv-x="1101" d="M-18 1366h256l305 -569l321 569h256l-458 -817v-549h-224v549zM420 1511l143 308h240l-195 -308h-188z" />
<glyph unicode="&#xde;" horiz-adv-x="1126" d="M102 0v1366h226v-227h463q291 0 290 -269v-303q0 -135 -72.5 -210.5t-205.5 -75.5h-475v-281h-226zM328 510h401q68 0 98.5 29.5t30.5 101.5v152q0 123 -133 122h-397v-405z" />
<glyph unicode="&#xdf;" horiz-adv-x="1128" d="M104 -389v1528q0 147 62.5 222t218.5 75h311q270 0 271 -252v-144q0 -115 -103 -188q98 -25 133 -97.5t35 -199.5v-270q0 -285 -280 -285h-252v203h213q117 0 116 127v215q0 76 -28.5 109.5t-91.5 33.5h-142v197h68q66 0 97.5 24.5t31.5 87.5v140q0 102 -113 102h-229 q-115 0 -115 -121v-1507h-203z" />
<glyph unicode="&#xe0;" horiz-adv-x="1075" d="M104 244v194q0 121 70 188.5t191 67.5h405v39q0 104 -115 105h-528v202h567q129 0 202 -65.5t73 -194.5v-526q0 -111 -67.5 -182.5t-178.5 -71.5h-348q-121 0 -196 62.5t-75 181.5zM301 1487h234l141 -303h-187zM305 301q0 -98 111 -98h246q57 0 81.5 22.5t24.5 73.5v205 h-354q-109 0 -109 -111v-92z" />
<glyph unicode="&#xe1;" horiz-adv-x="1075" d="M104 244v194q0 121 70 188.5t191 67.5h405v39q0 104 -115 105h-528v202h567q129 0 202 -65.5t73 -194.5v-526q0 -111 -67.5 -182.5t-178.5 -71.5h-348q-121 0 -196 62.5t-75 181.5zM305 301q0 -98 111 -98h246q57 0 81.5 22.5t24.5 73.5v205h-354q-109 0 -109 -111v-92z M397 1184l142 305h233l-190 -305h-185z" />
<glyph unicode="&#xe2;" horiz-adv-x="1075" d="M104 244v194q0 121 70 188.5t191 67.5h405v39q0 104 -115 105h-528v202h567q129 0 202 -65.5t73 -194.5v-526q0 -111 -67.5 -182.5t-178.5 -71.5h-348q-121 0 -196 62.5t-75 181.5zM203 1163q74 111 217 332h207l215 -332h-187l-135 232q-16 -29 -62 -109t-71 -123h-184z M305 301q0 -98 111 -98h246q57 0 81.5 22.5t24.5 73.5v205h-354q-109 0 -109 -111v-92z" />
<glyph unicode="&#xe3;" horiz-adv-x="1075" d="M104 244v194q0 121 70 188.5t191 67.5h405v39q0 104 -115 105h-528v202h567q129 0 202 -65.5t73 -194.5v-526q0 -111 -67.5 -182.5t-178.5 -71.5h-348q-121 0 -196 62.5t-75 181.5zM240 1171v158q59 82 151 82q76 0 160 -29.5t135 -29.5q72 0 148 75v-151 q-53 -68 -144 -68q-66 0 -156 31t-145 31q-49 0 -92 -37t-57 -62zM305 301q0 -98 111 -98h246q57 0 81.5 22.5t24.5 73.5v205h-354q-109 0 -109 -111v-92z" />
<glyph unicode="&#xe4;" horiz-adv-x="1075" d="M104 244v194q0 121 70 188.5t191 67.5h405v39q0 104 -115 105h-528v202h567q129 0 202 -65.5t73 -194.5v-526q0 -111 -67.5 -182.5t-178.5 -71.5h-348q-121 0 -196 62.5t-75 181.5zM203 1310.5q0 55.5 38 94.5t95 39t96 -38t39 -93q0 -57 -38 -96t-97 -39q-57 0 -95 38.5 t-38 94zM305 301q0 -98 111 -98h246q57 0 81.5 22.5t24.5 73.5v205h-354q-109 0 -109 -111v-92zM600 1310.5q0 55.5 38 94.5t95.5 39t96 -38t38.5 -93q0 -57 -37.5 -96t-97.5 -39q-57 0 -95 38.5t-38 94z" />
<glyph unicode="&#xe5;" horiz-adv-x="1075" d="M104 244v194q0 121 70 188.5t191 67.5h405v39q0 104 -115 105h-528v202h567q129 0 202 -65.5t73 -194.5v-526q0 -111 -67.5 -182.5t-178.5 -71.5h-348q-121 0 -196 62.5t-75 181.5zM301 1360q0 90 69.5 150.5t176.5 60.5q102 0 170.5 -61.5t68.5 -149.5 q0 -96 -69.5 -155.5t-171.5 -59.5q-104 0 -174 59.5t-70 155.5zM305 301q0 -98 111 -98h246q57 0 81.5 22.5t24.5 73.5v205h-354q-109 0 -109 -111v-92zM428 1360q0 -49 32 -83t85 -34q51 0 82.5 34t31.5 83t-31.5 82t-85 33t-84 -33t-30.5 -82z" />
<glyph unicode="&#xe6;" horiz-adv-x="1716" d="M104 244v194q0 121 70 188.5t191 67.5h403v54q0 90 -113 90h-528v202h500q90 0 144 -19.5t67.5 -34.5t29.5 -46q16 33 25.5 46t63 33.5t141.5 20.5h270q262 0 262 -260v-248l-661 -147v-74q0 -33 11 -54t23.5 -32.5t45 -16.5t49.5 -5h63h467v-203h-532q-43 0 -76 3 t-55.5 10t-37 11.5t-24.5 18.5t-13 17t-10.5 19.5t-7.5 18.5q-16 -31 -26 -46t-60.5 -33.5t-132.5 -18.5h-278q-121 0 -196 62.5t-75 181.5zM305 301q0 -98 111 -98h246q57 0 81.5 22.5t24.5 73.5v205h-354q-109 0 -109 -111v-92zM969 565l456 107v61q0 59 -32.5 82 t-118.5 23h-148q-158 0 -157 -111v-162z" />
<glyph unicode="&#xe7;" horiz-adv-x="864" d="M104 274v514q0 252 238 252h457v-202h-377q-57 0 -87 -20.5t-30 -80.5v-413q0 -66 24.5 -93.5t92.5 -27.5h379v-203h-332v-53q0 -33 7 -40t38 -7h51q135 0 135 -146v-129q0 -143 -176 -143h-262v139h197q51 0 65.5 12.5t14.5 57.5v22q0 41 -13.5 55.5t-58.5 14.5h-41 q-100 0 -100 102v117q-222 24 -222 272z" />
<glyph unicode="&#xe8;" horiz-adv-x="1052" d="M104 279v501q0 123 71 191.5t196 68.5h334q262 0 262 -260v-248l-662 -147v-61q0 -72 32 -96.5t103 -24.5h525v-203h-570q-291 0 -291 279zM297 1487h233l142 -303h-187zM305 565l457 107v61q0 59 -33 82t-119 23h-147q-84 0 -121 -22.5t-37 -90.5v-160z" />
<glyph unicode="&#xe9;" horiz-adv-x="1052" d="M104 279v501q0 123 71 191.5t196 68.5h334q262 0 262 -260v-248l-662 -147v-61q0 -72 32 -96.5t103 -24.5h525v-203h-570q-291 0 -291 279zM305 565l457 107v61q0 59 -33 82t-119 23h-147q-84 0 -121 -22.5t-37 -90.5v-160zM412 1184l141 305h233l-190 -305h-184z" />
<glyph unicode="&#xea;" horiz-adv-x="1052" d="M104 279v501q0 123 71 191.5t196 68.5h334q262 0 262 -260v-248l-662 -147v-61q0 -72 32 -96.5t103 -24.5h525v-203h-570q-291 0 -291 279zM217 1163q74 111 217 332h207l215 -332h-186l-135 232q-16 -29 -62.5 -109t-71.5 -123h-184zM305 565l457 107v61q0 59 -33 82 t-119 23h-147q-84 0 -121 -22.5t-37 -90.5v-160z" />
<glyph unicode="&#xeb;" horiz-adv-x="1052" d="M104 279v501q0 123 71 191.5t196 68.5h334q262 0 262 -260v-248l-662 -147v-61q0 -72 32 -96.5t103 -24.5h525v-203h-570q-291 0 -291 279zM193 1310.5q0 55.5 37.5 94.5t95 39t96.5 -38t39 -93q0 -57 -38 -96t-97 -39q-57 0 -95 38.5t-38 94zM305 565l457 107v61 q0 59 -33 82t-119 23h-147q-84 0 -121 -22.5t-37 -90.5v-160zM590 1310.5q0 55.5 38 94.5t95 39t96 -38t39 -93q0 -57 -38 -96t-97 -39q-57 0 -95 38.5t-38 94z" />
<glyph unicode="&#xec;" horiz-adv-x="413" d="M-51 1487h233l142 -303h-187zM106 0v1040h201v-1040h-201z" />
<glyph unicode="&#xed;" horiz-adv-x="413" d="M106 0v1040h201v-1040h-201zM109 1184l141 305h233l-190 -305h-184z" />
<glyph unicode="&#xee;" horiz-adv-x="413" d="M-113 1163q74 111 217 332h207l215 -332h-186l-135 232q-16 -29 -62.5 -109t-70.5 -123h-185zM106 0v1040h201v-1040h-201z" />
<glyph unicode="&#xef;" horiz-adv-x="413" d="M-78 1310.5q0 57.5 32 95.5t87 38q57 0 89 -37t32 -94q0 -59 -32 -97t-89 -38q-55 0 -87 37.5t-32 95zM106 0v1040h201v-1040h-201zM252 1310.5q0 57.5 31.5 95.5t89.5 38q55 0 88 -37t33 -94q0 -59 -32 -97t-89.5 -38t-89 37.5t-31.5 95z" />
<glyph unicode="&#xf0;" horiz-adv-x="1069" d="M102 270v504q0 119 70 192.5t188 73.5h408v17q0 49 -14 102l-193 -47l-24 127l182 45q-45 76 -113 137h221q45 -43 78 -100l187 45l28 -131l-176 -41q20 -80 21 -213v-702q0 -133 -70 -206t-205 -73h-334q-123 0 -188.5 72.5t-65.5 197.5zM301 303q0 -104 121 -104h217 q66 0 97.5 26.5t31.5 93.5v523h-342q-125 0 -125 -123v-416z" />
<glyph unicode="&#xf1;" horiz-adv-x="1069" d="M106 0v788q0 252 263 252h333q260 0 261 -252v-788h-201v729q0 61 -28.5 85t-90.5 24h-215q-63 0 -92 -23.5t-29 -85.5v-729h-201zM236 1171v158q59 82 151 82q76 0 160 -29.5t135 -29.5q72 0 147 75v-151q-53 -68 -143 -68q-66 0 -156 31t-145 31q-49 0 -92 -37t-57 -62 z" />
<glyph unicode="&#xf2;" horiz-adv-x="1079" d="M106 244v549q0 117 63.5 182t188.5 65h369q121 0 183.5 -63.5t62.5 -183.5v-549q0 -115 -62.5 -179.5t-181.5 -64.5h-373q-250 0 -250 244zM295 1487h233l142 -303h-187zM307 307q0 -104 115 -104h242q109 0 108 106v418q0 59 -25.5 85t-84.5 26h-238q-117 0 -117 -107 v-424z" />
<glyph unicode="&#xf3;" horiz-adv-x="1079" d="M106 244v549q0 117 63.5 182t188.5 65h369q121 0 183.5 -63.5t62.5 -183.5v-549q0 -115 -62.5 -179.5t-181.5 -64.5h-373q-250 0 -250 244zM307 307q0 -104 115 -104h242q109 0 108 106v418q0 59 -25.5 85t-84.5 26h-238q-117 0 -117 -107v-424zM422 1184l141 305h234 l-191 -305h-184z" />
<glyph unicode="&#xf4;" horiz-adv-x="1079" d="M106 244v549q0 117 63.5 182t188.5 65h369q121 0 183.5 -63.5t62.5 -183.5v-549q0 -115 -62.5 -179.5t-181.5 -64.5h-373q-250 0 -250 244zM217 1163q74 111 217 332h207l215 -332h-186l-135 232q-16 -29 -62.5 -109t-71.5 -123h-184zM307 307q0 -104 115 -104h242 q109 0 108 106v418q0 59 -25.5 85t-84.5 26h-238q-117 0 -117 -107v-424z" />
<glyph unicode="&#xf5;" horiz-adv-x="1079" d="M106 244v549q0 117 63.5 182t188.5 65h369q121 0 183.5 -63.5t62.5 -183.5v-549q0 -115 -62.5 -179.5t-181.5 -64.5h-373q-250 0 -250 244zM242 1171v158q59 82 151 82q78 0 160 -29.5t135 -29.5q72 0 148 75v-151q-53 -68 -144 -68q-66 0 -156 31t-145 31q-49 0 -92 -37 t-57 -62zM307 307q0 -104 115 -104h242q109 0 108 106v418q0 59 -25.5 85t-84.5 26h-238q-117 0 -117 -107v-424z" />
<glyph unicode="&#xf6;" horiz-adv-x="1079" d="M106 244v549q0 117 63.5 182t188.5 65h369q121 0 183.5 -63.5t62.5 -183.5v-549q0 -115 -62.5 -179.5t-181.5 -64.5h-373q-250 0 -250 244zM205 1310.5q0 55.5 38 94.5t95 39t96 -38t39 -93q0 -57 -38 -96t-97 -39q-57 0 -95 38.5t-38 94zM307 307q0 -104 115 -104h242 q109 0 108 106v418q0 59 -25.5 85t-84.5 26h-238q-117 0 -117 -107v-424zM602 1310.5q0 55.5 38 94.5t95.5 39t96 -38t38.5 -93q0 -57 -37.5 -96t-97.5 -39q-57 0 -95 38.5t-38 94z" />
<glyph unicode="&#xf7;" d="M178 432v178h883v-178h-883zM485 184.5q0 57.5 37 96t96 38.5q61 0 98.5 -38.5t37.5 -96t-36 -95.5t-100 -38q-59 0 -96 38t-37 95.5zM485 856q0 57 37 96t96 39q61 0 98.5 -39t37.5 -96q0 -55 -37 -94t-99 -39q-59 0 -96 39t-37 94z" />
<glyph unicode="&#xf8;" horiz-adv-x="1079" d="M104 244v549q0 117 64.5 182t187.5 65h279q12 0 34.5 -1t35.5 -1l77 170h115l-82 -180q158 -39 158 -235v-549q0 -117 -62.5 -180.5t-183.5 -63.5h-371l-75 -170h-117l84 184q-144 46 -144 230zM305 305q0 -55 41 -72l268 605h-192q-68 0 -92.5 -35t-24.5 -117v-381z M446 203h216q111 0 110 106v418q0 72 -51 88z" />
<glyph unicode="&#xf9;" horiz-adv-x="1069" d="M106 252v788h201v-727q0 -61 29 -85.5t92 -24.5h215q61 0 90 24.5t29 85.5v727h201v-788q0 -252 -261 -252h-333q-263 0 -263 252zM307 1487h234l141 -303h-186z" />
<glyph unicode="&#xfa;" horiz-adv-x="1069" d="M106 252v788h201v-727q0 -61 29 -85.5t92 -24.5h215q61 0 90 24.5t29 85.5v727h201v-788q0 -252 -261 -252h-333q-263 0 -263 252zM393 1184l142 305h233l-190 -305h-185z" />
<glyph unicode="&#xfb;" horiz-adv-x="1069" d="M106 252v788h201v-727q0 -61 29 -85.5t92 -24.5h215q61 0 90 24.5t29 85.5v727h201v-788q0 -252 -261 -252h-333q-263 0 -263 252zM213 1163q74 111 217 332h207l215 -332h-186l-136 232q-16 -29 -62 -109t-71 -123h-184z" />
<glyph unicode="&#xfc;" horiz-adv-x="1069" d="M106 252v788h201v-727q0 -61 29 -85.5t92 -24.5h215q61 0 90 24.5t29 85.5v727h201v-788q0 -252 -261 -252h-333q-263 0 -263 252zM201 1310.5q0 55.5 37.5 94.5t95 39t96.5 -38t39 -93q0 -57 -38 -96t-97 -39q-57 0 -95 38.5t-38 94zM598 1310.5q0 55.5 38 94.5t95 39 t96 -38t39 -93q0 -57 -37.5 -96t-97.5 -39q-57 0 -95 38.5t-38 94z" />
<glyph unicode="&#xfd;" horiz-adv-x="1071" d="M104 -186h543q119 0 119 116v70h-371q-174 0 -232.5 62.5t-58.5 207.5v770h201v-714q0 -72 27.5 -97.5t95.5 -25.5h338v837h199v-1163q0 -129 -58.5 -197.5t-212.5 -68.5h-590v203zM401 1184l142 305h233l-190 -305h-185z" />
<glyph unicode="&#xfe;" horiz-adv-x="1075" d="M104 -369v1782h201v-438q59 66 178 65h152q184 0 259 -59t75 -211v-518q0 -252 -258 -252h-406v-369h-201zM305 203h344q61 0 90 26.5t29 96.5v399q0 59 -34 86t-136 27h-186q-106 0 -107 -115v-520z" />
<glyph unicode="&#xff;" horiz-adv-x="1071" d="M104 -186h543q119 0 119 116v70h-371q-174 0 -232.5 62.5t-58.5 207.5v770h201v-714q0 -72 27.5 -97.5t95.5 -25.5h338v837h199v-1163q0 -129 -58.5 -197.5t-212.5 -68.5h-590v203zM201 1310.5q0 55.5 37.5 94.5t95 39t96.5 -38t39 -93q0 -57 -38 -96t-97 -39 q-57 0 -95 38.5t-38 94zM598 1310.5q0 55.5 38 94.5t95 39t96 -38t39 -93q0 -57 -37.5 -96t-97.5 -39q-57 0 -95 38.5t-38 94z" />
<glyph unicode="&#x152;" horiz-adv-x="1857" d="M104 303v754q0 158 74 233.5t240 75.5h338q76 0 126 -11.5t73.5 -37t29.5 -37.5t14 -43q29 63 56 84q59 45 196 45h521v-225h-541q-61 0 -93 -41t-32 -103v-202h655v-226h-655v-207q0 -141 160 -141h506v-221h-570q-141 0 -205 137q-45 -88 -101 -112.5t-175 -24.5h-295 q-162 0 -242 72.5t-80 230.5zM328 428q0 -131 39 -169t172 -38h190q78 0 116 31t38 106v590q0 109 -30 151t-122 42h-196q-135 0 -171 -38t-36 -171v-504z" />
<glyph unicode="&#x153;" horiz-adv-x="1720" d="M104 244v549q0 117 63.5 182t188.5 65h306q84 0 133 -17t59 -32.5t23 -46.5q2 2 9 14.5t10 17.5t13.5 16.5t19.5 15.5t26.5 12t37 11t47 6t62.5 3h270q262 0 262 -260v-248l-659 -147v-61q0 -70 31.5 -95.5t103.5 -25.5h522v-203h-514q-35 0 -63.5 2t-50 6t-37 7 t-28.5 11.5t-20.5 11.5t-14.5 13t-9 13.5t-8 15.5t-6 14q-10 -29 -24.5 -46t-65 -32.5t-134.5 -15.5h-301q-252 0 -252 244zM305 305q0 -102 115 -102h205q78 0 112.5 19.5t34.5 86.5v381q0 80 -21.5 114t-88.5 34h-205q-76 0 -114 -23.5t-38 -85.5v-424zM973 565l457 107 v61q0 61 -35 83t-131 22h-119q-88 0 -130 -20.5t-42 -92.5v-160z" />
<glyph unicode="&#x178;" horiz-adv-x="1101" d="M-18 1366h256l305 -569l321 569h256l-458 -817v-549h-224v549zM207 1659q0 55 39 95t96 40t96 -39t39 -94q0 -57 -38 -97t-97 -40t-97 39t-38 96zM618 1659q0 55 39 95t96.5 40t96.5 -39t39 -94q0 -57 -38 -97t-97.5 -40t-97.5 39t-38 96z" />
<glyph unicode="&#x2c6;" horiz-adv-x="1024" d="M190 1163q74 111 218 332h206l215 -332h-186l-135 232q-16 -29 -62.5 -109t-70.5 -123h-185z" />
<glyph unicode="&#x2dc;" horiz-adv-x="1024" d="M215 1184v157q59 82 152 82q76 0 159.5 -29.5t135.5 -29.5q72 0 147 76v-152q-53 -68 -143 -67q-66 0 -156 30.5t-145 30.5q-49 0 -92.5 -36.5t-57.5 -61.5z" />
<glyph unicode="&#x2000;" horiz-adv-x="931" />
<glyph unicode="&#x2001;" horiz-adv-x="1865" />
<glyph unicode="&#x2002;" horiz-adv-x="931" />
<glyph unicode="&#x2003;" horiz-adv-x="1865" />
<glyph unicode="&#x2004;" horiz-adv-x="620" />
<glyph unicode="&#x2005;" horiz-adv-x="464" />
<glyph unicode="&#x2006;" horiz-adv-x="309" />
<glyph unicode="&#x2007;" horiz-adv-x="309" />
<glyph unicode="&#x2008;" horiz-adv-x="231" />
<glyph unicode="&#x2009;" horiz-adv-x="372" />
<glyph unicode="&#x200a;" horiz-adv-x="102" />
<glyph unicode="&#x2010;" horiz-adv-x="610" d="M0 424v203h608v-203h-608z" />
<glyph unicode="&#x2011;" horiz-adv-x="610" d="M0 424v203h608v-203h-608z" />
<glyph unicode="&#x2012;" horiz-adv-x="610" d="M0 424v203h608v-203h-608z" />
<glyph unicode="&#x2013;" horiz-adv-x="845" d="M0 508v201h846v-201h-846z" />
<glyph unicode="&#x2014;" horiz-adv-x="1255" d="M0 508v201h1255v-201h-1255z" />
<glyph unicode="&#x2018;" horiz-adv-x="438" d="M80 1144.5q0 59.5 45 137.5l100 172h135l-88 -192q8 -4 20.5 -11.5t34 -39t21.5 -70.5q0 -57 -37 -96t-98 -39t-97 39.5t-36 99z" />
<glyph unicode="&#x2019;" horiz-adv-x="438" d="M74 1006l88 192q-8 4 -20.5 11.5t-34 39t-21.5 70.5q0 57 37 96t96 39q63 0 99 -40t36 -99.5t-45 -136.5l-100 -172h-135z" />
<glyph unicode="&#x201a;" horiz-adv-x="438" d="M74 -195l88 193q-8 4 -20.5 11t-34 39t-21.5 71q0 57 37 97t96 40q63 0 99 -40t36 -101q0 -59 -45 -138l-100 -172h-135z" />
<glyph unicode="&#x201c;" horiz-adv-x="802" d="M74 1145q0 63 43 137l102 172h135l-90 -192q8 -4 21.5 -11.5t35 -39t21.5 -70.5q0 -57 -38 -96t-97 -39q-63 0 -98 39t-35 100zM438 1144.5q0 59.5 45 137.5l101 172h135l-88 -192q8 -4 20.5 -11.5t34 -39t21.5 -70.5q0 -57 -37 -96t-98.5 -39t-97.5 39.5t-36 99z" />
<glyph unicode="&#x201d;" horiz-adv-x="802" d="M74 1006l88 192q-8 4 -20.5 11.5t-34 39t-21.5 70.5q0 57 37 96t96 39q63 0 99 -40t36 -99.5t-45 -136.5l-100 -172h-135zM438 1006l90 192q-8 4 -21 11.5t-34.5 39t-21.5 70.5q0 57 37.5 96t97.5 39q63 0 98 -39t35 -100q0 -63 -43 -137l-103 -172h-135z" />
<glyph unicode="&#x201e;" horiz-adv-x="802" d="M74 -195l88 193q-8 4 -20.5 11t-34 39t-21.5 71q0 57 37 97t96 40q63 0 99 -40t36 -101q0 -59 -45 -138l-100 -172h-135zM438 -195l90 193q-8 4 -21 11t-34.5 39t-21.5 71q0 57 37.5 97t97.5 40q61 0 97 -40t36 -101q0 -63 -43 -138l-103 -172h-135z" />
<glyph unicode="&#x2022;" horiz-adv-x="645" d="M0 616.5q0 133.5 94 225.5t228 92q135 0 229 -92t94 -225.5t-95 -226.5t-228.5 -93t-227.5 93t-94 226.5z" />
<glyph unicode="&#x2026;" horiz-adv-x="1308" d="M86 120.5q0 57.5 37 96.5t96 39q61 0 98 -39t37 -96.5t-35.5 -95t-99.5 -37.5q-59 0 -96 37.5t-37 95zM518 120.5q0 57.5 38 96.5t97.5 39t96 -39t36.5 -96.5t-35.5 -95t-97.5 -37.5q-59 0 -97 37.5t-38 95zM954 120.5q0 57.5 37 96.5t96 39q61 0 98.5 -39t37.5 -96.5 t-36 -95t-100 -37.5q-59 0 -96 37.5t-37 95z" />
<glyph unicode="&#x202f;" horiz-adv-x="372" />
<glyph unicode="&#x2039;" horiz-adv-x="677" d="M63 520q0 43 46 101l268 337h235l-344 -432l346 -436h-243l-260 328q-48 59 -48 102z" />
<glyph unicode="&#x203a;" horiz-adv-x="677" d="M63 958h244l260 -327q47 -59 47 -101q0 -43 -45 -100l-268 -340h-235l346 434z" />
<glyph unicode="&#x205f;" horiz-adv-x="464" />
<glyph unicode="&#x20ac;" d="M63 465v178h173v100h-173v179h173v137q0 154 74.5 230.5t244.5 76.5h571v-225h-514q-152 0 -151 -133v-86h485v-179h-485v-100h485v-178h-485v-82q0 -90 33.5 -126t119.5 -36h510v-221h-608q-281 0 -280 305v160h-173z" />
<glyph unicode="&#x2122;" horiz-adv-x="1619" d="M39 1288v160h561v-160h-192v-674h-175v674h-194zM655 614v709q0 133 127 133q35 0 59.5 -9t40 -29.5t22.5 -38t18 -46.5l157 -461l164 463q23 66 57.5 93.5t92.5 27.5q119 0 118 -127v-715h-168v531l-145 -445q-31 -100 -113 -100q-80 0 -112 96l-150 449v-531h-168z" />
<glyph unicode="&#xe000;" horiz-adv-x="1040" d="M0 1040h1040v-1040h-1040v1040z" />
<glyph unicode="&#xfb01;" horiz-adv-x="948" d="M106 0v1186q0 250 267 250h172v-197h-105q-133 0 -133 -117v-82h217v-202h-217v-838h-201zM608 1311q0 55 38 94t95.5 39t96.5 -38t39 -93q0 -57 -38 -96t-97.5 -39t-96.5 38t-37 95zM641 0v1040h201v-1040h-201z" />
<glyph unicode="&#xfb02;" horiz-adv-x="940" d="M106 0v1186q0 250 267 250h172v-197h-105q-133 0 -133 -117v-82h217v-202h-217v-838h-201zM633 0v1436h201v-1436h-201z" />
<glyph unicode="&#xfb03;" horiz-adv-x="1429" d="M1090 1311q0 55 38 94t95 39t96 -38t39 -93q0 -57 -38 -96t-97.5 -39t-96 38t-36.5 95zM1122 0v1040h201v-1040h-201zM614 0v1186q0 250 267 250h172v-197h-105q-133 0 -133 -117v-82h217v-202h-217v-838h-201zM106 0v1186q0 250 267 250h172v-197h-105q-133 0 -133 -117 v-82h217v-202h-217v-838h-201z" />
<glyph unicode="&#xfb04;" horiz-adv-x="1429" d="M1122 0v1436h201v-1436h-201zM614 0v1186q0 250 267 250h172v-197h-105q-133 0 -133 -117v-82h217v-202h-217v-838h-201zM106 0v1186q0 250 267 250h172v-197h-105q-133 0 -133 -117v-82h217v-202h-217v-838h-201z" />
</font>
</defs>
</svg>
