<?xml version="1.0" encoding="utf-8"?>
<!-- Generator: Adobe Illustrator 15.1.0, SVG Export Plug-In  -->
<!DOCTYPE svg PUBLIC "-//W3C//DTD SVG 1.1//EN" "http://www.w3.org/Graphics/SVG/1.1/DTD/svg11.dtd" [
	<!ENTITY ns_flows "http://ns.adobe.com/Flows/1.0/">
]>
<svg version="1.1"
	 xmlns="http://www.w3.org/2000/svg" xmlns:xlink="http://www.w3.org/1999/xlink" xmlns:a="http://ns.adobe.com/AdobeSVGViewerExtensions/3.0/"
	 x="0px" y="0px" width="312px" height="756px" viewBox="-10.97 0 312 756"
	 overflow="visible" enable-background="new -10.97 0 312 756" xml:space="preserve">
<defs>
</defs>
<path fill="none" d="M298.203,651.479c0-2.199-1.8-4-4-4h-39.521c-2.2,0-4,1.801-4,4V691c0,2.2,1.8,4,4,4h39.521c2.2,0,4-1.8,4-4
	V651.479z M282.366,675.161c0,2.2-1.8,4-4,4h-7.842c-2.201,0-4-1.8-4-4v-7.842c0-2.2,1.799-4,4-4h7.842c2.2,0,4,1.8,4,4V675.161z"/>
<path fill="none" d="M298.203,730.68v7.84c0,1.794,1.204,3.304,2.839,3.807v-15.453C299.407,727.376,298.203,728.886,298.203,730.68
	z"/>
<path fill="#05182F" d="M298.201,72.703v7.84c0,2.199-1.8,4-4,4h-7.84c-2.201,0-4-1.801-4-4v-7.84c0-2.2-1.801-4-4-4h-7.838
	c-2.201,0-4,1.8-4,4v23.68c0,2.199-1.8,4-4,4H238.84c-2.2,0-4,1.799-4,4v7.84c0,2.201,1.8,4,4,4h39.521c2.199,0,4,1.801,4,4v7.84
	c0,2.201-1.801,4-4,4H238.84c-2.2,0-4,1.801-4,4v7.84c0,2.2,1.8,4,4,4h7.842c2.201,0,4,1.8,4,4v7.841c0,2.2,1.8,4,4,4h7.842
	c2.2,0,4-1.8,4-4v-7.841c0-2.2,1.799-4,4-4h23.678c2.2,0,4-1.8,4-4v-23.68c0-1.794,1.205-3.305,2.841-3.807v-47.52
	C299.406,69.397,298.201,70.908,298.201,72.703z"/>
<path fill="#05182F" d="M290.284,524.141v7.841c0,2.2,1.8,4,4,4h6.758v-15.841h-6.758
	C292.084,520.141,290.284,521.94,290.284,524.141z"/>
<path fill="#EF3C24" d="M290.284,484.461v-7.841c0-2.2-1.799-4-4-4h-23.682c-2.199,0-4,1.8-4,4v7.841c0,2.2,1.801,4,4,4h7.84
	c2.199,0,4,1.8,4,4v7.84c0,2.2-1.801,4-4,4h-7.84c-2.199,0-4,1.8-4,4v23.681c0,2.2,1.801,4,4,4h7.84c2.199,0,4-1.8,4-4v-7.841
	c0-2.2,1.8-4,4-4h7.842c2.201,0,4-1.8,4-4v-7.84c0-2.2,1.8-4,4-4h6.758v-15.84h-6.758
	C292.084,488.461,290.284,486.661,290.284,484.461z"/>
<path fill="#05182F" d="M290.284,421.101v-23.679c0-2.2-1.799-4-4-4h-7.842c-2.2,0-4-1.8-4-4v-7.841c0-2.2-1.801-4-4-4h-7.84
	c-2.199,0-4,1.8-4,4v23.68c0,2.201,1.801,4,4,4h7.84c2.199,0,4,1.801,4,4v7.84c0,2.2-1.801,4-4,4h-23.678c-2.2,0-4,1.8-4,4v23.681
	c0,2.2-1.8,4-4,4h-7.841c-2.2,0-4,1.8-4,4v23.68c0,2.2,1.8,4,4,4h7.841c2.2,0,4-1.8,4-4v-7.841c0-2.2,1.8-4,4-4h7.838
	c2.2,0,4-1.8,4-4v-23.678c0-2.2,1.801-4,4-4h23.682c2.201,0,4,1.8,4,4v7.839c0,2.2,1.8,4,4,4h6.758v-31.681h-6.758
	C292.084,425.101,290.284,423.301,290.284,421.101z"/>
<path fill="#05182F" d="M242.765,421.101v-23.679c0-2.2-1.8-4-4-4h-7.841c-2.2,0-4,1.8-4,4v7.839c0,2.201-1.8,4-4,4h-23.681
	c-2.199,0-4,1.801-4,4v23.682c0,2.2,1.801,4,4,4h7.843c2.2,0,4-1.8,4-4v-7.842c0-2.2,1.8-4,4-4h23.679
	C240.965,425.101,242.765,423.301,242.765,421.101z"/>
<path fill="#05182F" d="M187.321,9.682c0,2.2,1.801,4,4,4h7.843c2.2,0,4,1.8,4,4v39.52c0,2.201,1.8,4,4,4h7.838c2.2,0,4-1.799,4-4
	v-7.84c0-2.201,1.8-4,4-4h7.841c2.2,0,4,1.799,4,4v7.84c0,2.201,1.8,4,4,4h7.838c2.2,0,4-1.799,4-4v-23.68c0-2.201,1.801-4,4-4
	h23.682c2.201,0,4-1.801,4-4v-7.84c0-2.2-1.799-4-4-4h-39.52c-2.2,0-4,1.8-4,4v7.84c0,2.199-1.8,4-4,4h-7.841c-2.2,0-4-1.801-4-4
	V1.84c0-0.666,0.181-1.286,0.472-1.84H186.85c0.291,0.554,0.472,1.174,0.472,1.84V9.682z"/>
<path fill="#05182F" d="M67.361,37.021h7.842c2.199,0,4-1.799,4-4v-7.84c0-2.201-1.801-4-4-4h-7.842c-2.2,0-4,1.799-4,4v7.84
	C63.361,35.222,65.161,37.021,67.361,37.021z"/>
<path fill="#05182F" d="M126.723,96.382v-23.68c0-2.201-1.8-4-4-4h-7.841c-2.2,0-4,1.799-4,4v23.68c0,2.201,1.8,4,4,4h7.841
	C124.923,100.382,126.723,98.583,126.723,96.382z"/>
<path fill="#05182F" d="M130.723,68.703h7.842c2.2,0,4-1.801,4-4v-7.84c0-2.2-1.8-4-4-4h-7.842c-2.2,0-4,1.8-4,4v7.84
	C126.723,66.902,128.522,68.703,130.723,68.703z"/>
<path fill="#05182F" d="M51.521,52.863h7.84c2.2,0,4-1.8,4-4v-7.842c0-2.199-1.8-4-4-4h-7.84c-2.201,0-4,1.801-4,4v7.842
	C47.521,51.063,49.32,52.863,51.521,52.863z"/>
<path fill="#05182F" d="M91.045,84.542h-7.842c-2.201,0-4-1.801-4-4v-23.68c0-2.2-1.801-4-4-4h-7.842c-2.2,0-4,1.8-4,4v7.84
	c0,2.199-1.8,4-4,4h-7.84c-2.201,0-4-1.801-4-4v-7.84c0-2.2-1.801-4-4-4h-7.838c-2.201,0-4,1.8-4,4v23.68c0,2.199-1.8,4-4,4H4
	c-2.2,0-4,1.799-4,4v7.84c0,2.201,1.8,4,4,4h39.521c2.199,0,4,1.801,4,4v7.84c0,2.201-1.801,4-4,4H4c-2.2,0-4,1.801-4,4v7.84
	c0,2.2,1.8,4,4,4h7.842c2.201,0,4,1.8,4,4v7.841c0,2.2,1.8,4,4,4h7.842c2.2,0,4-1.8,4-4v-7.841c0-2.2,1.799-4,4-4h23.678
	c2.2,0,4-1.8,4-4v-23.68c0-2.199,1.8-4,4-4h23.684c2.2,0,4-1.799,4-4v-7.84C95.045,86.341,93.245,84.542,91.045,84.542z"/>
<path fill="#EF3C24" d="M190.084,143.903v-23.681c0-2.199-1.801-4-4-4h-7.841c-2.2,0-4-1.799-4-4v-7.84c0-2.199,1.8-4,4-4h7.841
	c2.199,0,4-1.799,4-4v-39.52c0-2.2-1.801-4-4-4h-7.841c-2.2,0-4-1.8-4-4V25.181c0-2.201-1.8-4-4-4H162.4c-2.201,0-4,1.799-4,4
	v39.521c0,2.199,1.799,4,4,4h7.843c2.2,0,4,1.799,4,4v7.84c0,2.199-1.8,4-4,4h-23.679c-2.2,0-4,1.799-4,4v7.84c0,2.201,1.8,4,4,4
	h7.836c2.2,0,4,1.801,4,4v23.68c0,2.2,1.799,4,4,4h7.843c2.2,0,4,1.8,4,4v7.841c0,2.2,1.8,4,4,4h7.841
	C188.283,147.903,190.084,146.103,190.084,143.903z"/>
<path fill="#05182F" d="M110.882,25.181c0-2.201-1.8-4-4-4h-7.837c-2.2,0-4,1.799-4,4v23.682c0,2.2,1.8,4,4,4h7.837c2.2,0,4-1.8,4-4
	V25.181z"/>
<path fill="#05182F" d="M130.723,37.021h7.842c2.2,0,4-1.799,4-4v-7.84c0-2.201-1.8-4-4-4h-7.842c-2.2,0-4,1.799-4,4v7.84
	C126.723,35.222,128.522,37.021,130.723,37.021z"/>
<path fill="#EF3C24" d="M148.961,715.92h-7.836c-2.2,0-4,1.801-4,4v7.84c0,2.201,1.8,4,4,4h7.836c2.201,0,4-1.799,4-4v-7.84
	C152.961,717.721,151.162,715.92,148.961,715.92z"/>
<path fill="#05182F" d="M125.283,700.08c-2.2,0-4,1.799-4,4v7.84c0,2.201,1.8,4,4,4h7.842c2.2,0,4-1.799,4-4v-7.84
	c0-2.201-1.8-4-4-4H125.283z"/>
<path fill="#05182F" d="M133.125,731.76h-7.842c-2.2,0-4,1.801-4,4v7.84c0,2.201,1.8,4,4,4h7.842c2.2,0,4-1.799,4-4v-7.84
	C137.125,733.561,135.325,731.76,133.125,731.76z"/>
<path fill="#05182F" d="M172.804,747.6h23.679c2.2,0,4-1.799,4-4v-23.68c0-2.199-1.8-4-4-4h-7.841c-2.2,0-4,1.801-4,4v7.84
	c0,2.201-1.8,4-4,4h-23.681c-2.199,0-4,1.801-4,4v7.84c0,2.201-1.799,4-4,4h-7.836c-2.2,0-4,1.801-4,4v4.4h31.679v-4.4
	C168.804,749.4,170.604,747.6,172.804,747.6z"/>
<path fill="#EF3C24" d="M101.443,747.6h-7.842c-2.2,0-4,1.801-4,4v4.4h15.842v-4.4C105.443,749.4,103.643,747.6,101.443,747.6z"/>
<path fill="#05182F" d="M266.526,286.461c0,2.201,1.8,4,4,4h7.836c2.201,0,4-1.799,4-4v-7.84c0-2.199-1.799-4-4-4h-7.836
	c-2.2,0-4,1.801-4,4V286.461z"/>
<path fill="#EF3C24" d="M254.685,274.621h7.842c2.2,0,4-1.799,4-4v-7.84c0-2.201-1.8-4-4-4h-7.842c-2.2,0-4,1.799-4,4v7.84
	C250.685,272.822,252.484,274.621,254.685,274.621z"/>
<path fill="#05182F" d="M254.685,306.301h7.842c2.2,0,4-1.8,4-4v-7.84c0-2.199-1.8-4-4-4h-7.842c-2.2,0-4,1.801-4,4v7.84
	C250.685,304.501,252.484,306.301,254.685,306.301z"/>
<path fill="#05182F" d="M282.362,294.461v7.84c0,2.2-1.799,4-4,4h-7.836c-2.2,0-4,1.8-4,4v7.841c0,2.2-1.8,4-4,4h-7.842
	c-2.2,0-4,1.8-4,4v7.839c0,2.201,1.8,4,4,4h23.678c2.201,0,4-1.799,4-4v-7.839c0-2.2,1.801-4,4-4h7.843c2.2,0,4-1.8,4-4v-7.841
	c0-1.793,1.203-3.303,2.837-3.806v-16.034h-14.68C284.163,290.461,282.362,292.262,282.362,294.461z"/>
<path fill="#05182F" d="M282.362,341.98v23.682c0,2.2,1.801,4,4,4h7.843c2.2,0,4-1.8,4-4v-7.842c0-1.793,1.203-3.303,2.837-3.806
	V337.98h-14.68C284.163,337.98,282.362,339.781,282.362,341.98z"/>
<path fill="#05182F" d="M250.685,199.42v7.84c0,2.201,1.8,4,4,4h23.678c2.201,0,4,1.801,4,4v7.842c0,2.2,1.801,4,4,4h7.843
	c2.2,0,4,1.8,4,4v39.52c0,1.794,1.203,3.303,2.837,3.806V195.42h-46.357C252.484,195.42,250.685,197.219,250.685,199.42z"/>
<path fill="#05182F" d="M219.003,333.98v-7.839c0-2.2-1.8-4-4-4h-23.682c-2.2,0-4,1.8-4,4v7.839c0,2.201,1.8,4,4,4h23.682
	C217.203,337.98,219.003,336.182,219.003,333.98z"/>
<path fill="#05182F" d="M223.003,322.142h7.842c2.199,0,4-1.8,4-4v-7.841c0-2.2-1.801-4-4-4h-7.842c-2.2,0-4,1.8-4,4v7.841
	C219.003,320.342,220.803,322.142,223.003,322.142z"/>
<path fill="#05182F" d="M301.042,742.326c-1.635-0.503-2.839-2.013-2.839-3.807v-7.84c0-1.794,1.204-3.304,2.839-3.807v-95.232
	h-30.518c-2.201,0-4-1.8-4-4V619.8c0-2.2-1.801-4-4-4h-7.842c-2.2,0-4,1.8-4,4v7.841c0,2.2-1.8,4-4,4h-23.678c-2.201,0-4,1.8-4,4
	v7.839c0,2.201,1.799,4,4,4h7.838c2.199,0,4,1.801,4,4V691c0,2.2-1.801,4-4,4h-7.838c-2.201,0-4,1.8-4,4v7.839c0,2.2,1.799,4,4,4
	h23.678c2.2,0,4,1.8,4,4v7.841c0,2.2,1.8,4,4,4h23.684c2.2,0,4,1.8,4,4v7.84c0,2.2-1.8,4-4,4h-7.842c-2.201,0-4,1.8-4,4v7.84
	c0,0.586-0.135,1.139-0.363,1.641h34.881V742.326z M294.203,695h-39.521c-2.2,0-4-1.8-4-4v-39.521c0-2.199,1.8-4,4-4h39.521
	c2.2,0,4,1.801,4,4V691C298.203,693.2,296.403,695,294.203,695z"/>
<path fill="#EF3C24" d="M278.366,663.319h-7.842c-2.201,0-4,1.8-4,4v7.842c0,2.2,1.799,4,4,4h7.842c2.2,0,4-1.8,4-4v-7.842
	C282.366,665.119,280.566,663.319,278.366,663.319z"/>
</svg>
